<svg width="19" height="21" viewBox="0 0 19 21" fill="none" xmlns="http://www.w3.org/2000/svg">
<path fill-rule="evenodd" clip-rule="evenodd" d="M0 10.9667C0 18.2587 0.696639 18.4702 5.99748 20.0791C6.36672 20.1912 6.75868 20.3101 7.17391 20.4386C10.6701 21.5206 12.4891 20.9136 13.419 18.8589C14.403 18.8501 15.2372 18.7888 15.9137 18.5898C16.6994 18.3587 17.2988 17.9338 17.689 17.221C18.0484 16.5644 18.1928 15.7268 18.2628 14.7478C18.3333 13.7622 18.3333 12.5188 18.3333 10.9911V10.9311C18.3333 9.40351 18.3333 8.16066 18.2628 7.17613C18.1928 6.19822 18.0484 5.36152 17.6885 4.70601C17.2977 3.99404 16.6977 3.57108 15.9125 3.34146C15.2364 3.14375 14.4026 3.08309 13.419 3.07448C12.4891 1.01977 10.6701 0.412784 7.17391 1.49468C6.75859 1.6232 6.36694 1.74207 5.99764 1.85416C0.696652 3.46307 0 3.67451 0 10.9667ZM15.4598 17.0765C15.0902 17.1852 14.5964 17.2456 13.9176 17.2693C14.2614 15.654 14.3478 13.5357 14.3478 10.9667C14.3478 8.39755 14.2614 6.27919 13.9175 4.66386C14.5968 4.68739 15.091 4.7473 15.461 4.85549C15.9088 4.98644 16.1307 5.17363 16.2879 5.45996C16.4761 5.80276 16.6057 6.35252 16.6726 7.28779C16.7387 8.21 16.7391 9.3973 16.7391 10.9611C16.7391 12.5249 16.7387 13.713 16.6726 14.6362C16.6056 15.5725 16.4761 16.1241 16.2875 16.4686C16.1297 16.7569 15.9071 16.9449 15.4598 17.0765ZM10.3623 11.756C9.92209 11.756 9.56522 11.4026 9.56522 10.9667C9.56522 10.5307 9.92209 10.1773 10.3623 10.1773C10.8025 10.1773 11.1594 10.5307 11.1594 10.9667C11.1594 11.4026 10.8025 11.756 10.3623 11.756Z" fill="#FF5D5D"/>
</svg>
