<svg width="20" height="20" viewBox="0 0 20 20" fill="none" xmlns="http://www.w3.org/2000/svg">
<path fill-rule="evenodd" clip-rule="evenodd" d="M19.1384 13.7906C19.2663 13.4799 19.191 13.1212 18.9494 12.8905C18.7077 12.6598 18.3504 12.6055 18.0529 12.7543C17.048 13.2567 15.9169 13.5393 14.7185 13.5393C10.5441 13.5393 7.16012 10.1036 7.16013 5.86541C7.16013 4.14964 7.7138 2.56751 8.64992 1.28997C8.84778 1.01994 8.86001 0.653656 8.6806 0.370648C8.5012 0.0876391 8.16776 -0.0527779 7.84373 0.0182235C3.36016 1.00066 2.08667e-07 5.04868 0 9.89539C-2.40265e-07 15.476 4.45588 20 9.9525 20C14.0907 20 17.6372 17.436 19.1384 13.7906Z" fill="white"/>
</svg>
