<svg width="19" height="20" viewBox="0 0 19 20" fill="none" xmlns="http://www.w3.org/2000/svg">
<path d="M7.70053 10C7.70053 10.9205 8.46668 11.6667 9.41176 11.6667C10.3569 11.6667 11.123 10.9205 11.123 10C11.123 9.07952 10.3569 8.33333 9.41176 8.33333C8.46668 8.33333 7.70053 9.07952 7.70053 10Z" fill="white"/>
<path fill-rule="evenodd" clip-rule="evenodd" d="M11.955 2.02202C11.4295 -0.674006 7.39407 -0.674006 6.86856 2.02202C6.57737 3.5159 4.96195 4.40856 3.46465 3.90298C0.762446 2.99056 -1.25525 6.33543 0.921441 8.11903C2.12755 9.10734 2.12755 10.8927 0.921441 11.881C-1.25525 13.6646 0.762446 17.0094 3.46465 16.097C4.96195 15.5914 6.57737 16.4841 6.86856 17.978C7.39407 20.674 11.4295 20.674 11.955 17.978C12.2462 16.4841 13.8616 15.5914 15.3589 16.097C18.0611 17.0094 20.0788 13.6646 17.9021 11.881C16.696 10.8927 16.696 9.10734 17.9021 8.11903C20.0788 6.33543 18.0611 2.99056 15.3589 3.90298C13.8616 4.40856 12.2462 3.5159 11.955 2.02202ZM5.9893 10C5.9893 11.8409 7.52159 13.3333 9.41176 13.3333C11.3019 13.3333 12.8342 11.8409 12.8342 10C12.8342 8.15905 11.3019 6.66667 9.41176 6.66667C7.52159 6.66667 5.9893 8.15905 5.9893 10Z" fill="white"/>
</svg>
